<?xml version="1.0" encoding="UTF-8" standalone="no"?>
<!DOCTYPE svg PUBLIC "-//W3C//DTD SVG 1.1//EN"
 "http://www.w3.org/Graphics/SVG/1.1/DTD/svg11.dtd">
<!-- Generated by graphviz version 2.30.1 (20180828.1746)
 -->
<!-- Title: %3 Pages: 1 -->
<svg width="508pt" height="260pt"
 viewBox="0.00 0.00 508.00 260.00" xmlns="http://www.w3.org/2000/svg" xmlns:xlink="http://www.w3.org/1999/xlink">
<g id="graph0" class="graph" transform="scale(1 1) rotate(0) translate(4 256)">
<title>%3</title>
<polygon fill="white" stroke="white" points="-4,5 -4,-256 505,-256 505,5 -4,5"/>
<!-- [root] aws_instance.tf&#45;ec2 (expand) -->
<g id="node1" class="node"><title>[root] aws_instance.tf&#45;ec2 (expand)</title>
<polygon fill="none" stroke="black" points="240,-108 118,-108 118,-72 240,-72 240,-108"/>
<text text-anchor="middle" x="179" y="-86.3" font-family="Times,serif" font-size="14.00">aws_instance.tf&#45;ec2</text>
</g>
<!-- [root] provider[&quot;registry.terraform.io/hashicorp/aws&quot;] -->
<g id="node3" class="node"><title>[root] provider[&quot;registry.terraform.io/hashicorp/aws&quot;]</title>
<polygon fill="none" stroke="black" points="250,-36 -0.0161616,-18 250,-3.55271e-15 500.016,-18 250,-36"/>
<text text-anchor="middle" x="250" y="-14.3" font-family="Times,serif" font-size="14.00">provider[&quot;registry.terraform.io/hashicorp/aws&quot;]</text>
</g>
<!-- [root] aws_instance.tf&#45;ec2 (expand)&#45;&gt;[root] provider[&quot;registry.terraform.io/hashicorp/aws&quot;] -->
<g id="edge1" class="edge"><title>[root] aws_instance.tf&#45;ec2 (expand)&#45;&gt;[root] provider[&quot;registry.terraform.io/hashicorp/aws&quot;]</title>
<path fill="none" stroke="black" d="M196.551,-71.6966C205.582,-62.7922 216.717,-51.8139 226.482,-42.1866"/>
<polygon fill="black" stroke="black" points="228.961,-44.6577 233.625,-35.1446 224.046,-39.673 228.961,-44.6577"/>
</g>
<!-- [root] aws_s3_bucket.tf&#45;s3 (expand) -->
<g id="node2" class="node"><title>[root] aws_s3_bucket.tf&#45;s3 (expand)</title>
<polygon fill="none" stroke="black" points="383.25,-108 258.75,-108 258.75,-72 383.25,-72 383.25,-108"/>
<text text-anchor="middle" x="321" y="-86.3" font-family="Times,serif" font-size="14.00">aws_s3_bucket.tf&#45;s3</text>
</g>
<!-- [root] aws_s3_bucket.tf&#45;s3 (expand)&#45;&gt;[root] provider[&quot;registry.terraform.io/hashicorp/aws&quot;] -->
<g id="edge2" class="edge"><title>[root] aws_s3_bucket.tf&#45;s3 (expand)&#45;&gt;[root] provider[&quot;registry.terraform.io/hashicorp/aws&quot;]</title>
<path fill="none" stroke="black" d="M303.449,-71.6966C294.418,-62.7922 283.283,-51.8139 273.518,-42.1866"/>
<polygon fill="black" stroke="black" points="275.954,-39.673 266.375,-35.1446 271.039,-44.6577 275.954,-39.673"/>
</g>
<!-- [root] provider[&quot;registry.terraform.io/hashicorp/aws&quot;] (close) -->
<g id="node4" class="node"><title>[root] provider[&quot;registry.terraform.io/hashicorp/aws&quot;] (close)</title>
<ellipse fill="none" stroke="black" cx="250" cy="-162" rx="225.295" ry="18"/>
<text text-anchor="middle" x="250" y="-158.3" font-family="Times,serif" font-size="14.00">[root] provider[&quot;registry.terraform.io/hashicorp/aws&quot;] (close)</text>
</g>
<!-- [root] provider[&quot;registry.terraform.io/hashicorp/aws&quot;] (close)&#45;&gt;[root] aws_instance.tf&#45;ec2 (expand) -->
<g id="edge3" class="edge"><title>[root] provider[&quot;registry.terraform.io/hashicorp/aws&quot;] (close)&#45;&gt;[root] aws_instance.tf&#45;ec2 (expand)</title>
<path fill="none" stroke="black" d="M232.449,-143.697C223.766,-135.135 213.137,-124.656 203.652,-115.304"/>
<polygon fill="black" stroke="black" points="205.927,-112.633 196.349,-108.104 201.012,-117.617 205.927,-112.633"/>
</g>
<!-- [root] provider[&quot;registry.terraform.io/hashicorp/aws&quot;] (close)&#45;&gt;[root] aws_s3_bucket.tf&#45;s3 (expand) -->
<g id="edge4" class="edge"><title>[root] provider[&quot;registry.terraform.io/hashicorp/aws&quot;] (close)&#45;&gt;[root] aws_s3_bucket.tf&#45;s3 (expand)</title>
<path fill="none" stroke="black" d="M267.551,-143.697C276.234,-135.135 286.863,-124.656 296.348,-115.304"/>
<polygon fill="black" stroke="black" points="298.988,-117.617 303.651,-108.104 294.073,-112.633 298.988,-117.617"/>
</g>
<!-- [root] root -->
<g id="node5" class="node"><title>[root] root</title>
<ellipse fill="none" stroke="black" cx="250" cy="-234" rx="47.169" ry="18"/>
<text text-anchor="middle" x="250" y="-230.3" font-family="Times,serif" font-size="14.00">[root] root</text>
</g>
<!-- [root] root&#45;&gt;[root] provider[&quot;registry.terraform.io/hashicorp/aws&quot;] (close) -->
<g id="edge5" class="edge"><title>[root] root&#45;&gt;[root] provider[&quot;registry.terraform.io/hashicorp/aws&quot;] (close)</title>
<path fill="none" stroke="black" d="M250,-215.697C250,-207.983 250,-198.712 250,-190.112"/>
<polygon fill="black" stroke="black" points="253.5,-190.104 250,-180.104 246.5,-190.104 253.5,-190.104"/>
</g>
</g>
</svg>
